.
..............................Site Info...........................

 -   http://www.scenetime.com  *_*   

SceneTime is going to Close sign up on march/1, hurry up! get in before the doors are closed.

     We care to share . Join us on  http://www.scenetime.com 

    Be the first to get new release at  http://www.scenetime.com

        Seed back for speed


...................................NFO:.................................................                                ^    ^    ^    ^  
                               /F\  /L\  /4\  /X\ 
                              &lt;___&gt;&lt;___&gt;&lt;___&gt;&lt;___&gt;
							         
									Gives You
                           War.Horse.2011.XviD.iNT-FL4X
                      
					++++++++++++++++++++++++++++++++++++++++++++++++++
					+	Title:  War Horse (2011)                     +
				    +   Rating:  7.3/10 (14,177 Votes)               +
					+	Genre:  Drama | History | War                +
					+	Lang:  English | German (some dialogue)      +
					+	Country:  USA                                +
					+	Release Date: 13 January 2012 (UK)           +
					+	Runtime:  146 min                            + 
					+	Screens : 2,376                              +
					+	Director : Steven Spielberg                  +
					+	URL : http://www.imdb.com/title/tt1568911/   +
                    ++++++++++++++++++++++++++++++++++++++++++++++++++  
					
General
Format                         : AVI
Format/Info                    : Audio Video Interleave
File size                      : 700 MiB
Duration                       : 2h 26mn
Overall bit rate mode          : Variable
Overall bit rate               : 667 Kbps

Video
ID                             : 0
Format                         : MPEG-4 Visual
Format profile                 : Advanced Simple@L5
Format settings, BVOP          : 2
Format settings, QPel          : No
Format settings, GMC           : No warppoints
Format settings, Matrix        : Default (H.263)
Codec ID                       : XVID
Codec ID/Hint                  : XviD
Duration                       : 2h 26mn
Bit rate                       : 522 Kbps
Width                          : 720 pixels
Height                         : 304 pixels
Display aspect ratio           : 2.35:1
Frame rate                     : 23.976 fps
Color space                    : YUV
Chroma subsampling             : 4:2:0
Bit depth                      : 8 bits
Scan type                      : Progressive
Compression mode               : Lossy
Bits/(Pixel+Frame)             : 0.099
Stream size                    : 547 MiB (78%)
Writing library                : XviD 1.2.1 (UTC 2008-12-04)

Audio
ID                             : 1
Format                         : MPEG Audio
Format version                 : Version 1
Format profile                 : Layer 3
Mode                           : Joint stereo
Mode extension                 : MS Stereo
Codec ID                       : 55
Codec ID/Hint                  : MP3
Duration                       : 2h 26mn
Bit rate mode                  : Variable
Bit rate                       : 133 Kbps
Minimum bit rate               : 32.0 Kbps
Channel(s)                     : 2 channels
Sampling rate                  : 48.0 KHz
Compression mode               : Lossy
Stream size                    : 139 MiB (20%)
Alignment                      : Aligned on interleaves
Interleave, duration           : 24 ms (0.58 video frame)
Interleave, preload duration   : 63 ms
Writing library                : LAME3.98r
Encoding settings              : -m j -V 4 -q 0 -lowpass 17.5 --vbr-new -b 32